<svg id="visual" viewBox="0 0 960 540" width="960" height="540" xmlns="http://www.w3.org/2000/svg" xmlns:xlink="http://www.w3.org/1999/xlink" version="1.1"><rect x="0" y="0" width="960" height="540" fill="#fff4ee"></rect><path d="M0 493L13.3 488.5C26.7 484 53.3 475 80 474.3C106.7 473.7 133.3 481.3 160 488.3C186.7 495.3 213.3 501.7 240 492.5C266.7 483.3 293.3 458.7 320 456.2C346.7 453.7 373.3 473.3 400 477.5C426.7 481.7 453.3 470.3 480 471.2C506.7 472 533.3 485 560 485.3C586.7 485.7 613.3 473.3 640 474.5C666.7 475.7 693.3 490.3 720 490.8C746.7 491.3 773.3 477.7 800 466.2C826.7 454.7 853.3 445.3 880 450.2C906.7 455 933.3 474 946.7 483.5L960 493L960 541L946.7 541C933.3 541 906.7 541 880 541C853.3 541 826.7 541 800 541C773.3 541 746.7 541 720 541C693.3 541 666.7 541 640 541C613.3 541 586.7 541 560 541C533.3 541 506.7 541 480 541C453.3 541 426.7 541 400 541C373.3 541 346.7 541 320 541C293.3 541 266.7 541 240 541C213.3 541 186.7 541 160 541C133.3 541 106.7 541 80 541C53.3 541 26.7 541 13.3 541L0 541Z" fill="#000e35"></path><path d="M0 512L13.3 515C26.7 518 53.3 524 80 524.5C106.7 525 133.3 520 160 514.8C186.7 509.7 213.3 504.3 240 498.8C266.7 493.3 293.3 487.7 320 488C346.7 488.3 373.3 494.7 400 502.7C426.7 510.7 453.3 520.3 480 525.3C506.7 530.3 533.3 530.7 560 525C586.7 519.3 613.3 507.7 640 502C666.7 496.3 693.3 496.7 720 495.5C746.7 494.3 773.3 491.7 800 494.7C826.7 497.7 853.3 506.3 880 502.8C906.7 499.3 933.3 483.7 946.7 475.8L960 468L960 541L946.7 541C933.3 541 906.7 541 880 541C853.3 541 826.7 541 800 541C773.3 541 746.7 541 720 541C693.3 541 666.7 541 640 541C613.3 541 586.7 541 560 541C533.3 541 506.7 541 480 541C453.3 541 426.7 541 400 541C373.3 541 346.7 541 320 541C293.3 541 266.7 541 240 541C213.3 541 186.7 541 160 541C133.3 541 106.7 541 80 541C53.3 541 26.7 541 13.3 541L0 541Z" fill="#f5a123"></path></svg>